<svg xmlns="http://www.w3.org/2000/svg" viewBox="0 0 114.24 42.73"><title>cite_btn</title><path d="M114.27,36.27c-2.51-1-2.67-2.77-1.81-5.45a14.3,14.3,0,0,1,.67-2.65c1.76-6.43-.08-11.69-4.43-16.14a14,14,0,0,0-4.84-3.25,56.37,56.37,0,0,0-12.07-4.3C80.29,2.9,69-.27,57.18.38c-3.6.2-7.16,0-10.76.31C39.51,1.2,32.6.31,25.68,2.3c-4.52,1.3-9,1.94-12.89-1.63a1.81,1.81,0,0,0-2,.49,3.13,3.13,0,0,0,0,2.42c2.53,5.33.74,10.18-1.83,14.91Q5.4,25.41,2.41,32.72C1.22,35.62-.41,39,1.69,41.84c1.77,2.29,4.44.7,6.75-.24a32.59,32.59,0,0,1,17-3c5.91.53,11.86.67,17.7,1.83a50.13,50.13,0,0,0,9.93.9c14.54,0,29.08-.16,43.61-.31l2.15,0c2.31,0,4.82-1.35,6.71,1.27a1.1,1.1,0,0,0,1.28.2,18,18,0,0,1,6.91-2.7C115,39.3,115.39,36.72,114.27,36.27Z" transform="translate(-0.68 -0.29)" style="fill:#212121"/><g style="isolation:isolate"><text transform="translate(45.66 28.25)" style="isolation:isolate;font-size:20px;fill:#efefef;font-family:Verveine-Regular, Verveine">CI<tspan x="10.96" y="0" style="letter-spacing:-0.160009765625em">T</tspan><tspan x="18.58" y="0" style="letter-spacing:-0.019970703125em">E</tspan></text></g></svg>