<svg xmlns="http://www.w3.org/2000/svg" viewBox="0 0 1421.53 105.61"><title>title</title><path d="M1335.53,104.45c-18.39-1.89-36.81-2.6-55.22-3.53-11.65-.6-23.26-1.26-34.91-1.93-7.77-.42-15.5-.63-23.32-.4-8.72.31-17.46.31-26.21.26-15.54,0-31-.14-46.58.66-9.6.5-19.35.36-29.1.23-4.88-.07-9.75-.14-14.6-.13-8.42-.15-16.85.17-25.2.31s-16.81.32-25.2.57a100.71,100.71,0,0,1-35.32-5.37,181.66,181.66,0,0,0-38-7.35c-12.54-1.36-25.14-3.4-37.45-5.34a234.12,234.12,0,0,0-52.2-3.37,349.27,349.27,0,0,1-44.83,0c-9-.54-17.9,1-26.82,2.45C811.84,83,803.12,84.43,794.34,84c-18.49-.9-36.72-3.69-55-5.9-10.27-1.22-20.54-2.75-30.86-3.22-16.15-.74-32.36-1.78-48.52-1.84-12.67,0-25.22,1.17-37.76,2.1-27.46,2.07-49.54,6.92-83.53-3.37a18.39,18.39,0,0,1-4.09-.67,17.74,17.74,0,0,0-4.64-.65c-9.93.66-16.25,2.65-26.76,3.61-4.83.45-9.7.8-14.41.78-34.62-.06-69.23,1.34-103.84,2.49-14.87.5-29.75,1.17-44.65,1.09-6.12-.11-12.25.93-18.38,1.29a93.77,93.77,0,0,1-18.41-1,138,138,0,0,0-36-.63,62.61,62.61,0,0,1-7.74.51c-21.06-.11-42.06,1.1-63,2.48-16.15,1.12-32.42,1.27-48.55,1.74-4,.11-7.77-.14-10.26,3.9-.92,1.52-2.65,1.6-4.31,1.6-.86,0-1.73,0-2.6,0a47,47,0,0,1-5.17-.13,208,208,0,0,0-40.62,3.3c-9.92,1.4-19.68,3.59-29.47,5.68a207.6,207.6,0,0,1-30.89,2.64A12.66,12.66,0,0,1,15,96.35c-1.43-1-4.94-1.59-4.92-12.17a43.52,43.52,0,0,1-.83-7.28,1.92,1.92,0,0,1-2.18-1c-2.26-6-4.53-12-6.55-18.06a15,15,0,0,1,.9-10.45c5-11.44,3.89-23.28,3.14-35.12,0-1.93-.62-3.83-.65-5.76a6.14,6.14,0,0,1,5-6.22A2,2,0,0,1,10.32.4h1390.6l.12-.1a1.52,1.52,0,0,1,1.76,0,81.74,81.74,0,0,0,8.43-.06c5-.14,10.39-.27,10.3.06-3.79,9.46-5.57,11.5-4,20.56,2.2,2.93-.77,10.58,0,12.35,3,7.14,2.4,15.78,0,23.16-1.29,3.57-4.58,7.59-7.06,11.59a2.13,2.13,0,0,1,1.61-.56c1.72.24,1.87,1.75,1.75,2.93A33.73,33.73,0,0,1,1403,92.24a50.54,50.54,0,0,1-33.49,13.27c-2.57.06-5.15.1-7.72.1Q1348.63,105.61,1335.53,104.45Zm72.16-30.3a43,43,0,0,1,2-5,18.19,18.19,0,0,0-2.08,5Z" transform="translate(0 0)" style="fill:#efefef"/><path d="M11.41,70.73c1.74-.61,4.27-2,4.42,0,.82,4.42-.68,10.46,0,14.94,1,6.82,2.73,8.89,9.29,8.46,10.82-.71,22-.45,32.78-3.2a318.17,318.17,0,0,1,57.52-8.44c3.86-.25,7.81.14,10.36-3.76.89-1.45,2.8-1.42,4.42-1.42,3.89.06,7.77.13,11.66,0,18-.52,36.27-1,54.39-1.73,15.53-.63,31-1.91,46.56-2.54,11.95-.48,23.94-.06,36-1.32a92.74,92.74,0,0,1,22.26,1.09A114.06,114.06,0,0,0,334,73a57,57,0,0,1,9.69-.41c12.63.21,25.2-.15,37.85-.9,18-1.09,36.27-1,54.38-1.55,5.51-.12,11-.6,16.47-.8s11-.49,16.53-.36a390.37,390.37,0,0,0,53.28-2.68c22.19-2.56,44.49,7.06,66.77,5.22,16.43-1.33,32.9-2.13,49.34-3.78a241.91,241.91,0,0,1,38.82-.42c16.51,1,33,.84,49.44,3.12q19.22,2.66,38.51,5,10.77,1.26,21.27,2c27.11,2,54.21-7.15,81.36-5.15a204.61,204.61,0,0,0,31,.53,107.27,107.27,0,0,1,23.28.68q22.08,3,44.2,6.22c9,1.22,18,2.3,26.94,3.42a143.65,143.65,0,0,1,26.51,5.64,116.08,116.08,0,0,0,39.28,5.67c9.08-.21,18-.81,27.2-1s18.76-.22,28.15,0c20.72.56,41.45-.77,62.15-1.06,18.47-.23,36.92.62,55.37-.32a77.25,77.25,0,0,1,12.63.43c16.46,1.71,33,1.81,49.45,2.51,13.28.55,26.55,1.2,39.74,2.64a315.83,315.83,0,0,0,33,1.49A53.76,53.76,0,0,0,1381,97.36C1394,94,1403.89,87,1407.9,73.52a42.17,42.17,0,0,1,2.22-5.33,2.1,2.1,0,0,1,2.18-1.46c1.73.24,1.88,1.75,1.75,2.93a33.77,33.77,0,0,1-10.85,22,50.61,50.61,0,0,1-33.49,13.28,298.38,298.38,0,0,1-34-1c-18.4-1.89-36.82-2.59-55.23-3.51-11.66-.59-23.27-1.25-34.92-1.92-7.77-.41-15.51-.61-23.32-.39-8.72.32-17.47.31-26.22.27-15.55,0-31.06-.13-46.59.68-14.42.76-29.16.08-43.7.12-8.42-.14-16.85.18-25.21.33s-16.81.32-25.21.57A100.56,100.56,0,0,1,1020,94.65a182.36,182.36,0,0,0-38-7.33C969.45,86,956.85,83.93,944.54,82a234.28,234.28,0,0,0-52.22-3.34,347.62,347.62,0,0,1-44.84,0c-17.76-1.05-35.27,5.83-53,5-18.49-.89-36.72-3.66-55-5.87-10.28-1.21-20.55-2.74-30.87-3.2-16.15-.74-32.37-1.77-48.53-1.83-12.67,0-25.22,1.19-37.76,2.12-27.47,2.09-49.56,7-83.55-3.33-1.76.14-6.44-1.52-8.74-1.32-9.93.67-16.25,2.66-26.76,3.62-4.83.46-9.69.81-14.41.8-34.63,0-69.25,1.37-103.86,2.53-14.88.5-29.76,1.18-44.66,1.11-6.12-.11-12.26.94-18.38,1.3a93.07,93.07,0,0,1-18.42-1,138.47,138.47,0,0,0-36-.61,62.77,62.77,0,0,1-7.75.51c-21.06-.1-42.07,1.12-63,2.52-16.15,1.12-32.42,1.27-48.55,1.75-4,.11-7.78-.13-10.26,3.91-.93,1.52-2.65,1.6-4.31,1.61-2.59,0-5.22.12-7.77-.14a208.83,208.83,0,0,0-40.63,3.34c-9.92,1.4-19.68,3.6-29.47,5.69a208.85,208.85,0,0,1-30.89,2.66A12.67,12.67,0,0,1,15,96.36c-1.43-1-4.94-1.59-4.94-12.17C8.89,78.31,9,72,10.07,70.73v-1.2Z" transform="translate(0 0)" style="fill:#020202"/></svg>