<?xml version="1.0" encoding="utf-8"?>
<!-- Generator: Adobe Illustrator 23.0.2, SVG Export Plug-In . SVG Version: 6.00 Build 0)  -->
<svg version="1.1" id="Layer_1" xmlns="http://www.w3.org/2000/svg" xmlns:xlink="http://www.w3.org/1999/xlink" x="0px" y="0px"
	 viewBox="0 0 63 72" style="enable-background:new 0 0 63 72;" xml:space="preserve">
<style type="text/css">
	.st0{fill:#EFEFEF;}
</style>
<path id="Union_10" class="st0" d="M7,71.71c-0.88-0.26-1.37-1.19-1.11-2.06c0,0,0,0,0,0c0.09-0.39,0.18-0.78,0.27-1.17
	c-1.89-5.02-3.75-10.02-5.43-15.11c-0.88-3.16-0.59-6.52,0.81-9.48c4.55-10.4,3.51-21.15,2.83-31.9c0-1.69-0.51-3.35-0.58-5.03
	C3.16,6.44,2.58,5.89,2.04,5.29C0.9,3.92,0.25,2.21,0.19,0.43c1.01-0.65,2.33-0.55,3.23,0.25C4.12,1.3,4.85,1.9,5.58,2.48
	C6.34,1.77,7.28,1.3,8.3,1.1c0.54-0.13,1.11-0.01,1.56,0.33c0.38,0.37,0.56,0.9,0.49,1.43C10.02,3.66,9.76,4.5,9.57,5.35
	c10.22,6.78,22.06,10.64,32.65,16.79c5.26,3.68,11.21,6.25,17.49,7.55c1.05,0.36,1.97,1.01,2.68,1.86c0.8,0.88,0.91,2.19,0.28,3.2
	c-0.65,0.55-1.51,0.81-2.36,0.69c-0.48-0.11-0.97-0.16-1.47-0.15c-5.65,3.71-11.58,7.6-17.44,11.39
	c-6.37,4.56-12.81,9.02-19.04,13.8c-4.16,2.69-7.81,6.1-10.78,10.06c-0.53,0.69-1.28,1.18-2.12,1.38C8.64,72.07,7.79,72,7,71.71z"/>
</svg>
